<?xml version="1.0" standalone="no"?>
<!DOCTYPE svg PUBLIC "-//W3C//DTD SVG 1.1//EN" "http://www.w3.org/Graphics/SVG/1.1/DTD/svg11.dtd" >
<svg>
<metadata>
Created by FontForge 20090914 at Thu May 16 07:39:29 2013
 By www-data
&#194;&#169; 2009, 2010, 2011 Nippon Central FontMasters, Inc. All Rights Reserved.
</metadata>
<defs>
<font id="AlgreSansNC" horiz-adv-x="700" >
  <font-face 
    font-family="Alégre Sans NC"
    font-weight="400"
    font-stretch="condensed"
    units-per-em="2048"
    panose-1="2 6 6 6 6 1 1 4 1 1"
    ascent="1638"
    descent="-410"
    x-height="1400"
    cap-height="1400"
    bbox="-150 -400 2350 1800"
    underline-thickness="150"
    underline-position="-142"
    unicode-range="U+0020-U+2122"
  />
<missing-glyph horiz-adv-x="800" 
d="M750 1600v-1800h-700v1800h700zM200 1450v-1500h400v1500h-400z" />
    <glyph glyph-name=".notdef" horiz-adv-x="800" 
d="M750 1600v-1800h-700v1800h700zM200 1450v-1500h400v1500h-400z" />
    <glyph glyph-name="space" unicode=" " horiz-adv-x="300" 
 />
    <glyph glyph-name="exclam" unicode="!" horiz-adv-x="300" 
d="M250 1400v-1000h-200v1000h200zM250 200v-200h-200v200h200z" />
    <glyph glyph-name="quotedbl" unicode="&#x22;" horiz-adv-x="600" 
d="M140 1400l-90 0.000976562v200h200v-200c0 -86.667 -43.333 -163.334 -130 -230.001l-60 80c53.333 33.333 80 83.333 80 150zM440 1400l-90 0.000976562v200h200v-200c0 -86.667 -43.333 -163.334 -130 -230.001l-60 80c53.333 33.333 80 83.333 80 150z" />
    <glyph glyph-name="numbersign" unicode="#" horiz-adv-x="810" 
d="M150 350h-100v200h100v300h-100v200h100v250h200v-250h100v250h200v-250h110v-200h-110v-300h110v-200h-110v-250h-200v250h-100v-250h-200v250zM350 850v-300h100v300h-100z" />
    <glyph glyph-name="dollar" unicode="$" 
d="M50 450h200v-150c0 -66.667 33.333 -100 100 -100s100 33.333 100 100v100c0 66.667 -66.667 150 -200 250s-200 216.667 -200 350v100c0 200 100 300 300 300s300 -100 300 -300v-150h-200v150c0 66.667 -33.333 100 -100 100s-100 -33.333 -100 -100v-100
c0 -66.667 66.667 -150 200 -250s200 -216.667 200 -350v-100c0 -200 -100 -300 -300 -300s-300 100 -300 300v150zM410 20l20 -250h-150l10 250h120zM290 1370l-10 250h150l-20 -250h-120z" />
    <glyph glyph-name="percent" unicode="%" horiz-adv-x="1700" 
d="M350 1400c200 0 300 -100 300 -300v-300c0 -200 -100 -300 -300 -300s-300 100 -300 300v300c0 200 100 300 300 300zM250 1100v-300c0 -66.667 33.333 -100 100 -100s100 33.333 100 100v300c0 66.667 -33.333 100 -100 100s-100 -33.333 -100 -100zM1350 900
c200 0 300 -100 300 -300v-300c0 -200 -100 -300 -300 -300s-300 100 -300 300v300c0 200 100 300 300 300zM1250 600v-300c0 -66.667 33.333 -100 100 -100s100 33.333 100 100v300c0 66.667 -33.333 100 -100 100s-100 -33.333 -100 -100zM500 0l500 1400h200l-500 -1400
h-200z" />
    <glyph glyph-name="ampersand" unicode="&#x26;" horiz-adv-x="780" 
d="M380 600c-86.667 0 -130 -33.333 -130 -100v-200c0 -66.667 33.333 -100 100 -100s100 33.333 100 100v500h280v-200h-80v-300c0 -200 -100 -300 -300 -300s-300 100 -300 300v250c0 66.667 33.333 116.667 100 150c-53.333 33.333 -80 83.333 -80 150v250
c0 200 93.333 300 280 300c200 0 300 -100 300 -300v-50h-200v50c0 66.667 -33.333 100 -100 100c-53.333 0 -80 -33.333 -80 -100v-200c0 -66.667 36.667 -100 110 -100v-200z" />
    <glyph glyph-name="quotesingle" unicode="'" horiz-adv-x="300" 
d="M140 1400l-90 0.000976562v200h200v-200c0 -86.667 -43.333 -163.334 -130 -230.001l-60 80c53.333 33.333 80 83.333 80 150z" />
    <glyph glyph-name="parenleft" unicode="(" horiz-adv-x="500" 
d="M450 1600c-133.333 -266.667 -200 -566.669 -200 -900.002s66.667 -633.333 200 -900l-150 -50c-166.667 266.667 -250 583.334 -250 950.001s83.333 683.334 250 950.001z" />
    <glyph glyph-name="parenright" unicode=")" horiz-adv-x="500" 
d="M200 1650c166.667 -266.667 250 -583.332 250 -949.999s-83.333 -683.334 -250 -950.001l-150 50c133.333 266.667 200 566.667 200 900s-66.667 633.333 -200 900z" />
    <glyph glyph-name="plus" unicode="+" horiz-adv-x="900" 
d="M350 800v300h200v-300h300v-200h-300v-300h-200v300h-300v200h300z" />
    <glyph glyph-name="comma" unicode="," horiz-adv-x="300" 
d="M140 0l-90 0.000976562v200h200v-200c0 -86.667 -43.333 -163.334 -130 -230.001l-60 80c53.333 33.333 80 83.333 80 150z" />
    <glyph glyph-name="hyphen" unicode="-" 
d="M650 800v-200h-600v200h600z" />
    <glyph glyph-name="period" unicode="." horiz-adv-x="300" 
d="M250 200v-200h-200v200h200z" />
    <glyph glyph-name="slash" unicode="/" horiz-adv-x="800" 
d="M50 -200l500 1800h200l-500 -1800h-200z" />
    <glyph glyph-name="zero" unicode="0" 
d="M650 1100v-800c0 -200 -100 -300 -300 -300s-300 100 -300 300v800c0 200 100 300 300 300s300 -100 300 -300zM350 1200c-66.667 0 -100 -33.333 -100 -100v-800c0 -66.667 33.333 -100 100 -100s100 33.333 100 100v800c0 66.667 -33.333 100 -100 100z" />
    <glyph glyph-name="one" unicode="1" horiz-adv-x="530" 
d="M280 1100l-100 -100l-130 140l230 260h200v-1400h-200v1100z" />
    <glyph glyph-name="two" unicode="2" 
d="M650 0h-600v300c0 133.333 66.667 250 200 350s200 183.333 200 250v200c0 66.667 -33.333 100 -100 100s-100 -33.333 -100 -100v-150h-200v150c0 200 100 300 300 300s300 -100 300 -300v-200c0 -133.333 -66.667 -250 -200 -350s-200 -183.333 -200 -250v-100h400
v-200z" />
    <glyph glyph-name="three" unicode="3" 
d="M50 450l200 0.00195312v-150c0 -66.667 33.333 -100 100 -100s100 33.333 100 100v200c0 66.667 -33.333 100 -100 100h-100v200h100c66.667 0 100 33.333 100 100v200c0 66.667 -33.333 100 -100 100s-100 -33.333 -100 -100v-140h-200v140c0 200 100 300 300 300
s300 -100 300 -300v-200c0 -66.667 -33.333 -133.334 -100 -200.001c66.667 -66.667 100 -133.334 100 -200.001v-200c0 -200 -100 -300 -300 -300s-300 100 -300 300v150z" />
    <glyph glyph-name="four" unicode="4" 
d="M50 400v200l246 800h297l5 -800h52v-200h-48v-400h-203l1 400h-350zM399 600v530l-149 -530h149z" />
    <glyph glyph-name="five" unicode="5" 
d="M50 300v50h200v-50c0 -66.667 33.333 -100 100 -100s100 33.333 100 100v300c0 66.667 -33.333 100 -100 100s-100 -33.333 -100 -100h-200v800h600v-200h-400v-400c33.333 66.667 83.333 100 150 100c166.667 0 250 -83.333 250 -250v-350c0 -200 -100 -300 -300 -300
s-300 100 -300 300z" />
    <glyph glyph-name="six" unicode="6" 
d="M400 900c166.667 0 250 -83.333 250 -250v-350c0 -200 -100 -300 -300 -300s-300 100 -300 300v800c0 200 100 300 300 300s300 -100 300 -300v-50h-200v50c0 66.667 -33.333 100 -100 100s-100 -33.333 -100 -100v-300c33.333 66.667 83.333 100 150 100zM250 600v-300
c0 -66.667 33.333 -100 100 -100s100 33.333 100 100v300c0 66.667 -33.333 100 -100 100s-100 -33.333 -100 -100z" />
    <glyph glyph-name="seven" unicode="7" 
d="M650 1400v-200l-300 -1200h-220l300 1200h-380v200h600z" />
    <glyph glyph-name="eight" unicode="8" 
d="M450 300v200c0 66.667 -33.333 100 -100 100s-100 -33.333 -100 -100v-200c0 -66.667 33.333 -100 100 -100s100 33.333 100 100zM450 900v200c0 66.667 -33.333 100 -100 100s-100 -33.333 -100 -100v-200c0 -66.667 33.333 -100 100 -100s100 33.333 100 100zM350 0
c-200 0 -300 100 -300 300v250c0 66.667 33.333 116.667 100 150c-66.667 33.333 -100 83.333 -100 150v250c0 200 100 300 300 300s300 -100 300 -300v-250c0 -66.667 -33.333 -116.667 -100 -150c66.667 -33.333 100 -83.333 100 -150v-250c0 -200 -100 -300 -300 -300z
" />
    <glyph glyph-name="nine" unicode="9" 
d="M300 500c-166.667 0 -250 83.333 -250 250v350c0 200 100 300 300 300s300 -100 300 -300v-800c0 -200 -100 -300 -300 -300s-300 100 -300 300v50h200v-50c0 -66.667 33.333 -100 100 -100s100 33.333 100 100v300c-33.333 -66.667 -83.333 -100 -150 -100zM450 800v300
c0 66.667 -33.333 100 -100 100s-100 -33.333 -100 -100v-300c0 -66.667 33.333 -100 100 -100s100 33.333 100 100z" />
    <glyph glyph-name="colon" unicode=":" horiz-adv-x="300" 
d="M250 1200v-200h-200v200h200zM250 400v-200h-200v200h200z" />
    <glyph glyph-name="semicolon" unicode=";" horiz-adv-x="300" 
d="M140 200l-90 0.000976562v200h200v-200c0 -86.667 -43.333 -163.334 -130 -230.001l-60 80c53.333 33.333 80 83.333 80 150zM250 1200v-200h-200v200h200z" />
    <glyph glyph-name="less" unicode="&#x3c;" 
d="M280 700l370 -200v-230l-600 330v200l600 330v-230z" />
    <glyph glyph-name="equal" unicode="=" 
d="M650 1000v-200h-600v200h600zM650 600v-200h-600v200h600z" />
    <glyph glyph-name="greater" unicode="&#x3e;" 
d="M50 900v230l600 -330v-200l-600 -330v230l370 200z" />
    <glyph glyph-name="question" unicode="?" 
d="M250 400c0 166.667 33.333 283.332 100 349.999s100 133.334 100 200.001v150c0 66.667 -33.333 100 -100 100s-100 -33.333 -100 -100v-150h-200v150c0 200 100 300 300 300s300 -100 300 -300v-100c0 -133.333 -33.333 -233.333 -100 -300s-100 -166.667 -100 -300
h-200zM450 199.998v-200h-200v200h200z" />
    <glyph glyph-name="at" unicode="@" horiz-adv-x="1021" 
d="M864 504v389c0 245.333 -117 368 -351 368c-233.333 0 -350 -122.667 -350 -368v-389c0 -245.333 116.667 -368 350 -368c234 0 351 122.667 351 368zM971 909v-420c0 -318.667 -153.667 -478 -461 -478c-306.667 0 -460 159.333 -460 478v420
c0 318.667 153.333 478 460 478c307.333 0 461 -159.333 461 -478zM318 270l97 853h208l97 -853h-132l-14 163h-110l-14 -163h-132zM519 955l-43 -380h86z" />
    <glyph glyph-name="A" unicode="A" horiz-adv-x="760" 
d="M50 0l160 1400h340l160 -1400h-200l-40 300h-180l-40 -300h-200zM380 1190l-70 -690h140z" />
    <glyph glyph-name="B" unicode="B" 
d="M250 1200v-400h100c66.667 0 100 33.333 100 100v200c0 66.667 -33.333 100 -100 100h-100zM250 600v-400h100c66.667 0 100 33.333 100 100v200c0 66.667 -33.333 100 -100 100h-100zM50 0v1400h300c200 0 300 -100 300 -300v-200c0 -100 -33.333 -166.667 -100 -200
c66.667 -40 100 -106.667 100 -200v-200c0 -200 -100 -300 -300 -300h-300z" />
    <glyph glyph-name="C" unicode="C" 
d="M650 1100v-200h-200v200c0 66.667 -33.333 100 -100 100s-100 -33.333 -100 -100v-800c0 -66.667 33.333 -100 100 -100s100 33.333 100 100v200h200v-200c0 -200 -100 -300 -300 -300s-300 100 -300 300v800c0 200 100 300 300 300s300 -100 300 -300z" />
    <glyph glyph-name="D" unicode="D" 
d="M50 0v1400h300c200 0 300 -100 300 -300v-800c0 -200 -100 -300 -300 -300h-300zM250 1200v-1000h100c66.667 0 100 33.333 100 100v800c0 66.667 -33.333 100 -100 100h-100z" />
    <glyph glyph-name="E" unicode="E" horiz-adv-x="600" 
d="M50 1400h500v-200h-300v-400h250v-200h-250v-400h300v-200h-500v1400z" />
    <glyph glyph-name="F" unicode="F" horiz-adv-x="600" 
d="M50 1400h500v-200h-300v-400h250v-200h-250v-600h-200v1400z" />
    <glyph glyph-name="G" unicode="G" 
d="M450 300v200h-100v200h300v-400c0 -200 -100 -300 -300 -300s-300 100 -300 300v800c0 200 100 300 300 300s300 -100 300 -300v-200h-200v200c0 66.667 -33.333 100 -100 100s-100 -33.333 -100 -100v-800c0 -66.667 33.333 -100 100 -100s100 33.333 100 100z" />
    <glyph glyph-name="H" unicode="H" 
d="M250 1400v-600h200v600h200v-1400h-200v600h-200v-600h-200v1400h200z" />
    <glyph glyph-name="I" unicode="I" horiz-adv-x="300" 
d="M250 1400v-1400h-200v1400h200z" />
    <glyph glyph-name="J" unicode="J" 
d="M650 1400v-1100c0 -200 -100 -300 -300 -300s-300 100 -300 300v200h200v-200c0 -66.667 33.333 -100 100 -100s100 33.333 100 100v1100h200z" />
    <glyph glyph-name="K" unicode="K" 
d="M250 1400v-600h50l150 600h200l-166 -700l166 -700h-200l-150 600h-50v-600h-200v1400h200z" />
    <glyph glyph-name="L" unicode="L" horiz-adv-x="600" 
d="M50 1400h200v-1200h300v-200h-500v1400z" />
    <glyph glyph-name="M" unicode="M" horiz-adv-x="1050" 
d="M350 1400l170 -960l180 960h300v-1400h-200v950l-180 -950h-200l-170 950v-950h-200v1400h300z" />
    <glyph glyph-name="N" unicode="N" 
d="M50 0v1400h200l200 -750v750h200v-1400h-200l-200 750v-750h-200z" />
    <glyph glyph-name="O" unicode="O" 
d="M650 1100v-800c0 -200 -100 -300 -300 -300s-300 100 -300 300v800c0 200 100 300 300 300s300 -100 300 -300zM350 1200c-66.667 0 -100 -33.333 -100 -100v-800c0 -66.667 33.333 -100 100 -100s100 33.333 100 100v800c0 66.667 -33.333 100 -100 100z" />
    <glyph glyph-name="P" unicode="P" 
d="M250 1200v-500h100c66.667 0 100 33.333 100 100v300c0 66.667 -33.333 100 -100 100h-100zM50 0v1400h300c200 0 300 -100 300 -300v-300c0 -200 -100 -300 -300 -300h-100v-500h-200z" />
    <glyph glyph-name="Q" unicode="Q" 
d="M650 1100v-800c0 -200 -100 -300 -300 -300s-300 100 -300 300v800c0 200 100 300 300 300s300 -100 300 -300zM350 1200c-66.667 0 -100 -33.333 -100 -100v-800c0 -66.667 33.333 -100 100 -100s100 33.333 100 100v800c0 66.667 -33.333 100 -100 100zM510 -150
l-60 -150l-244 120l44 100z" />
    <glyph glyph-name="R" unicode="R" 
d="M250 1200v-500h100c66.667 0 100 33.333 100 100v300c0 66.667 -33.333 100 -100 100h-100zM50 0v1400h300c200 0 300 -100 300 -300v-300c0 -113.333 -36.667 -193.333 -110 -240l110 -560h-200l-100 500h-100v-500h-200z" />
    <glyph glyph-name="S" unicode="S" 
d="M50 450h200v-150c0 -66.667 33.333 -100 100 -100s100 33.333 100 100v100c0 66.667 -66.667 150 -200 250s-200 216.667 -200 350v100c0 200 100 300 300 300s300 -100 300 -300v-150h-200v150c0 66.667 -33.333 100 -100 100s-100 -33.333 -100 -100v-100
c0 -66.667 66.667 -150 200 -250s200 -216.667 200 -350v-100c0 -200 -100 -300 -300 -300s-300 100 -300 300v150z" />
    <glyph glyph-name="T" unicode="T" 
d="M650 1200h-200v-1200h-200v1200h-200v200h600v-200z" />
    <glyph glyph-name="U" unicode="U" 
d="M250 300c0 -66.667 33.333 -100 100 -100s100 33.333 100 100v1100h200v-1100c0 -200 -100 -300 -300 -300s-300 100 -300 300v1100h200v-1100z" />
    <glyph glyph-name="V" unicode="V" horiz-adv-x="760" 
d="M510 1400h200l-160 -1400h-340l-160 1400h200l130 -1190z" />
    <glyph glyph-name="W" unicode="W" horiz-adv-x="1100" 
d="M250 1400l70 -850l130 850h200l120 -850l80 850h200l-150 -1400h-220l-130 900l-130 -900h-220l-150 1400h200z" />
    <glyph glyph-name="X" unicode="X" horiz-adv-x="750" 
d="M50 1400h200l130 -500l120 500h200l-200 -700l200 -700h-200l-120 500l-130 -500h-200l200 700z" />
    <glyph glyph-name="Y" unicode="Y" horiz-adv-x="750" 
d="M250 1400l120 -650l130 650h200l-230 -900v-500h-200v500l-220 900h200z" />
    <glyph glyph-name="Z" unicode="Z" horiz-adv-x="650" 
d="M600 1400v-200l-350 -1000h350v-200h-550v200l350 1000h-350v200h550z" />
    <glyph glyph-name="bracketleft" unicode="[" horiz-adv-x="500" 
d="M450 1400h-200v-1400h200v-200h-400v1800h400v-200z" />
    <glyph glyph-name="backslash" unicode="\" horiz-adv-x="800" 
d="M550 -200l-500 1800h200l500 -1800h-200z" />
    <glyph glyph-name="bracketright" unicode="]" horiz-adv-x="500" 
d="M50 1600h400v-1800h-400v200h200v1400h-200v200z" />
    <glyph glyph-name="asciicircum" unicode="^" horiz-adv-x="760" 
d="M230 800h-180l190 800h290l180 -800h-170l-160 590z" />
    <glyph glyph-name="underscore" unicode="_" 
d="M650 -200v-200h-600v200h600z" />
    <glyph glyph-name="grave" unicode="`" horiz-adv-x="404" 
d="M50 1550l60 150l244 -120l-44 -100z" />
    <glyph glyph-name="a" unicode="a" horiz-adv-x="760" 
d="M50 0l160 1400h340l160 -1400h-200l-40 300h-180l-40 -300h-200zM380 1190l-70 -690h140z" />
    <glyph glyph-name="b" unicode="b" 
d="M250 1200v-400h100c66.667 0 100 33.333 100 100v200c0 66.667 -33.333 100 -100 100h-100zM250 600v-400h100c66.667 0 100 33.333 100 100v200c0 66.667 -33.333 100 -100 100h-100zM50 0v1400h300c200 0 300 -100 300 -300v-200c0 -100 -33.333 -166.667 -100 -200
c66.667 -40 100 -106.667 100 -200v-200c0 -200 -100 -300 -300 -300h-300z" />
    <glyph glyph-name="c" unicode="c" 
d="M650 1100v-200h-200v200c0 66.667 -33.333 100 -100 100s-100 -33.333 -100 -100v-800c0 -66.667 33.333 -100 100 -100s100 33.333 100 100v200h200v-200c0 -200 -100 -300 -300 -300s-300 100 -300 300v800c0 200 100 300 300 300s300 -100 300 -300z" />
    <glyph glyph-name="d" unicode="d" 
d="M50 0v1400h300c200 0 300 -100 300 -300v-800c0 -200 -100 -300 -300 -300h-300zM250 1200v-1000h100c66.667 0 100 33.333 100 100v800c0 66.667 -33.333 100 -100 100h-100z" />
    <glyph glyph-name="e" unicode="e" horiz-adv-x="600" 
d="M50 1400h500v-200h-300v-400h250v-200h-250v-400h300v-200h-500v1400z" />
    <glyph glyph-name="f" unicode="f" horiz-adv-x="600" 
d="M50 1400h500v-200h-300v-400h250v-200h-250v-600h-200v1400z" />
    <glyph glyph-name="g" unicode="g" 
d="M450 300v200h-100v200h300v-400c0 -200 -100 -300 -300 -300s-300 100 -300 300v800c0 200 100 300 300 300s300 -100 300 -300v-200h-200v200c0 66.667 -33.333 100 -100 100s-100 -33.333 -100 -100v-800c0 -66.667 33.333 -100 100 -100s100 33.333 100 100z" />
    <glyph glyph-name="h" unicode="h" 
d="M250 1400v-600h200v600h200v-1400h-200v600h-200v-600h-200v1400h200z" />
    <glyph glyph-name="i" unicode="i" horiz-adv-x="300" 
d="M250 1400v-1400h-200v1400h200z" />
    <glyph glyph-name="j" unicode="j" 
d="M650 1400v-1100c0 -200 -100 -300 -300 -300s-300 100 -300 300v200h200v-200c0 -66.667 33.333 -100 100 -100s100 33.333 100 100v1100h200z" />
    <glyph glyph-name="k" unicode="k" 
d="M250 1400v-600h50l150 600h200l-166 -700l166 -700h-200l-150 600h-50v-600h-200v1400h200z" />
    <glyph glyph-name="l" unicode="l" horiz-adv-x="600" 
d="M50 1400h200v-1200h300v-200h-500v1400z" />
    <glyph glyph-name="m" unicode="m" horiz-adv-x="1050" 
d="M350 1400l170 -960l180 960h300v-1400h-200v950l-180 -950h-200l-170 950v-950h-200v1400h300z" />
    <glyph glyph-name="n" unicode="n" 
d="M50 0v1400h200l200 -750v750h200v-1400h-200l-200 750v-750h-200z" />
    <glyph glyph-name="o" unicode="o" 
d="M650 1100v-800c0 -200 -100 -300 -300 -300s-300 100 -300 300v800c0 200 100 300 300 300s300 -100 300 -300zM350 1200c-66.667 0 -100 -33.333 -100 -100v-800c0 -66.667 33.333 -100 100 -100s100 33.333 100 100v800c0 66.667 -33.333 100 -100 100z" />
    <glyph glyph-name="p" unicode="p" 
d="M250 1200v-500h100c66.667 0 100 33.333 100 100v300c0 66.667 -33.333 100 -100 100h-100zM50 0v1400h300c200 0 300 -100 300 -300v-300c0 -200 -100 -300 -300 -300h-100v-500h-200z" />
    <glyph glyph-name="q" unicode="q" 
d="M650 1100v-800c0 -200 -100 -300 -300 -300s-300 100 -300 300v800c0 200 100 300 300 300s300 -100 300 -300zM350 1200c-66.667 0 -100 -33.333 -100 -100v-800c0 -66.667 33.333 -100 100 -100s100 33.333 100 100v800c0 66.667 -33.333 100 -100 100zM510 -150
l-60 -150l-244 120l44 100z" />
    <glyph glyph-name="r" unicode="r" 
d="M250 1200v-500h100c66.667 0 100 33.333 100 100v300c0 66.667 -33.333 100 -100 100h-100zM50 0v1400h300c200 0 300 -100 300 -300v-300c0 -113.333 -36.667 -193.333 -110 -240l110 -560h-200l-100 500h-100v-500h-200z" />
    <glyph glyph-name="s" unicode="s" 
d="M50 450h200v-150c0 -66.667 33.333 -100 100 -100s100 33.333 100 100v100c0 66.667 -66.667 150 -200 250s-200 216.667 -200 350v100c0 200 100 300 300 300s300 -100 300 -300v-150h-200v150c0 66.667 -33.333 100 -100 100s-100 -33.333 -100 -100v-100
c0 -66.667 66.667 -150 200 -250s200 -216.667 200 -350v-100c0 -200 -100 -300 -300 -300s-300 100 -300 300v150z" />
    <glyph glyph-name="t" unicode="t" 
d="M650 1200h-200v-1200h-200v1200h-200v200h600v-200z" />
    <glyph glyph-name="u" unicode="u" 
d="M250 300c0 -66.667 33.333 -100 100 -100s100 33.333 100 100v1100h200v-1100c0 -200 -100 -300 -300 -300s-300 100 -300 300v1100h200v-1100z" />
    <glyph glyph-name="v" unicode="v" horiz-adv-x="760" 
d="M510 1400h200l-160 -1400h-340l-160 1400h200l130 -1190z" />
    <glyph glyph-name="w" unicode="w" horiz-adv-x="1100" 
d="M250 1400l70 -850l130 850h200l120 -850l80 850h200l-150 -1400h-220l-130 900l-130 -900h-220l-150 1400h200z" />
    <glyph glyph-name="x" unicode="x" horiz-adv-x="750" 
d="M50 1400h200l130 -500l120 500h200l-200 -700l200 -700h-200l-120 500l-130 -500h-200l200 700z" />
    <glyph glyph-name="y" unicode="y" horiz-adv-x="750" 
d="M250 1400l120 -650l130 650h200l-230 -900v-500h-200v500l-220 900h200z" />
    <glyph glyph-name="z" unicode="z" horiz-adv-x="650" 
d="M600 1400v-200l-350 -1000h350v-200h-550v200l350 1000h-350v200h550z" />
    <glyph glyph-name="braceleft" unicode="{" horiz-adv-x="650" 
d="M200 900v300c0 266.667 133.333 400 400 400v-200c-133.333 0 -200 -66.667 -200 -200v-350c0 -66.667 -33.333 -116.667 -100 -150c66.667 -33.333 100 -83.333 100 -150v-350c0 -133.333 66.667 -200 200 -200v-200c-266.667 0 -400 133.333 -400 400v300
c0 66.667 -50 100 -150 100v200c100 0 150 33.333 150 100z" />
    <glyph glyph-name="bar" unicode="|" horiz-adv-x="300" 
d="M250 1600v-1800h-200v1800h200z" />
    <glyph glyph-name="braceright" unicode="}" horiz-adv-x="650" 
d="M600 800v-200c-100 0 -150 -33.333 -150 -100v-300c0 -266.667 -133.333 -400 -400 -400v200c133.333 0 200 66.667 200 200v350c0 66.667 33.333 116.667 100 150c-66.667 33.333 -100 83.333 -100 150v350c0 133.333 -66.667 200 -200 200v200
c266.667 0 400 -133.333 400 -400v-300c0 -66.667 50 -100 150 -100z" />
    <glyph glyph-name="exclamdown" unicode="&#xa1;" horiz-adv-x="300" 
d="M50 0v1000h200v-1000h-200zM50 1200v200h200v-200h-200z" />
    <glyph glyph-name="cent" unicode="&#xa2;" 
d="M350 1400c-200 0 -300 -100 -300 -300v-800c0 -200 100 -300 300 -300s300 100 300 300v200h-200v-200c0 -66.667 -33.333 -100 -100 -100s-100 33.333 -100 100v800c0 66.667 33.333 100 100 100s100 -33.333 100 -100v-200h200v200c0 200 -100 300 -300 300zM410 1370
l20 250h-150l10 -250h120zM300 20l-20 -250h150l-10 250h-120z" />
    <glyph glyph-name="sterling" unicode="&#xa3;" horiz-adv-x="800" 
d="M100 0v200l30 300h-80v200h100l10 400c0 200 96.667 300 290 300c200 0 300 -100 300 -300v-100h-200v100c0 66.667 -33.333 100 -100 100c-60 0 -90 -33.333 -90 -100l-10 -400h210v-200h-230l-30 -300h410v-200h-610z" />
    <glyph glyph-name="yen" unicode="&#xa5;" horiz-adv-x="750" 
d="M50 1400l220 -900v-500h200v500l230 900h-200l-130 -650l-120 650h-200zM70 500v-100h600v100h-600zM70 300v-100h600v100h-600z" />
    <glyph glyph-name="brokenbar" unicode="&#xa6;" horiz-adv-x="300" 
d="M250 1600v-800h-200v800h200zM250 600v-800h-200v800h200z" />
    <glyph glyph-name="dieresis" unicode="&#xa8;" 
d="M250 1700v-200h-200v200h200zM650 1700v-200h-200v200h200z" />
    <glyph glyph-name="copyright" unicode="&#xa9;" horiz-adv-x="1021" 
d="M712 1034v-89h-136v89c0 46 -22.667 69 -68 69c-46 0 -69 -23 -69 -69v-417c0 -46.667 23 -70 69 -70c45.333 0 68 23.333 68 70v89h136v-89c0 -139.333 -68 -209 -204 -209c-136.667 0 -205 69.667 -205 209v417c0 138.667 68.333 208 205 208
c136 0 204 -69.333 204 -208zM864 644v389c0 245.333 -117 368 -351 368c-233.333 0 -350 -122.667 -350 -368v-389c0 -245.333 116.667 -368 350 -368c234 0 351 122.667 351 368zM971 1049v-420c0 -318.667 -153.667 -478 -461 -478c-306.667 0 -460 159.333 -460 478v420
c0 318.667 153.333 478 460 478c307.333 0 461 -159.333 461 -478z" />
    <glyph glyph-name="guillemotleft" unicode="&#xab;" horiz-adv-x="946" 
d="M500 1200l-250 -500l250 -500h-200l-250 500l250 500h200zM896 1200l-250 -500l250 -500h-200l-250 500l250 500h200z" />
    <glyph glyph-name="logicalnot" unicode="&#xac;" horiz-adv-x="900" 
d="M850 900v-500h-200v300h-600v200h800z" />
    <glyph glyph-name="registered" unicode="&#xae;" horiz-adv-x="1021" 
d="M864 644v389c0 245.333 -117 368 -351 368c-233.333 0 -350 -122.667 -350 -368v-389c0 -245.333 116.667 -368 350 -368c234 0 351 122.667 351 368zM443 1107v-268h70c46.667 0 70 24.333 70 73v121c0 49.333 -23.333 74 -70 74h-70zM303 423v831h210
c140.667 0 211 -73.667 211 -221v-121c0 -83.333 -25.667 -142.333 -77 -177l77 -312h-141l-70 268h-70v-268h-140zM971 1049v-420c0 -318.667 -153.667 -478 -461 -478c-306.667 0 -460 159.333 -460 478v420c0 318.667 153.333 478 460 478
c307.333 0 461 -159.333 461 -478z" />
    <glyph glyph-name="degree" unicode="&#xb0;" horiz-adv-x="600" 
d="M477 1527c48.667 -48.667 73 -107.667 73 -177s-24.333 -128.333 -73 -177s-107.667 -73 -177 -73s-128.333 24.333 -177 73s-73 107.667 -73 177s24.333 128.333 73 177s107.667 73 177 73s128.333 -24.333 177 -73zM303 1477c-34.667 0 -64 -12 -88 -36
s-36 -53 -36 -87c0 -34.667 12 -64 36 -88s53.333 -36 88 -36c34 0 63 12 87 36s36 53.333 36 88c0 34 -12 63 -36 87s-53 36 -87 36z" />
    <glyph glyph-name="plusminus" unicode="&#xb1;" horiz-adv-x="900" 
d="M350 900v300h200v-300h300v-200h-300v-300h-200v300h-300v200h300zM850 200v-200h-800v200h800z" />
    <glyph glyph-name="acute" unicode="&#xb4;" horiz-adv-x="404" 
d="M94 1480l-44 100l244 120l60 -150z" />
    <glyph glyph-name="mu" unicode="&#xb5;" horiz-adv-x="1050" 
d="M350 1400l170 -960l180 960h300v-1400h-200v950l-180 -950h-200l-170 950v-950h-200v1400h300z" />
    <glyph glyph-name="paragraph" unicode="&#xb6;" horiz-adv-x="900" 
d="M850 1400v-1400h-200v1200h-100v-1200h-200v800c-200 0 -300 100 -300 300s100 300 300 300h500z" />
    <glyph glyph-name="periodcentered" unicode="&#xb7;" horiz-adv-x="270" 
d="M220.494 784.995v-169.995h-169.995v169.995h169.995z" />
    <glyph glyph-name="cedilla" unicode="&#xb8;" horiz-adv-x="404" 
d="M310 -80l44 -100l-244 -120l-60 150z" />
    <glyph glyph-name="guillemotright" unicode="&#xbb;" horiz-adv-x="946" 
d="M250 1200l250 -500l-250 -500h-200l250 500l-250 500h200zM646 1200l250 -500l-250 -500h-200l250 500l-250 500h200z" />
    <glyph glyph-name="questiondown" unicode="&#xbf;" 
d="M450 1000c0 -166.667 -33.333 -283.332 -100 -349.999s-100 -133.334 -100 -200.001v-150c0 -66.667 33.333 -100 100 -100s100 33.333 100 100v150h200v-150c0 -200 -100 -300 -300 -300s-300 100 -300 300v100c0 133.333 33.333 233.333 100 300s100 166.667 100 300
h200zM250 1200v200h200v-200h-200z" />
    <glyph glyph-name="Agrave" unicode="&#xc0;" horiz-adv-x="760" 
d="M50 0l160 1400h340l160 -1400h-200l-40 300h-180l-40 -300h-200zM380 1190l-70 -690h140zM177 1550l60 150l244 -120l-44 -100z" />
    <glyph glyph-name="Aacute" unicode="&#xc1;" horiz-adv-x="760" 
d="M50 0l160 1400h340l160 -1400h-200l-40 300h-180l-40 -300h-200zM380 1190l-70 -690h140zM323 1480l-44 100l244 120l60 -150z" />
    <glyph glyph-name="Acircumflex" unicode="&#xc2;" horiz-adv-x="760" 
d="M50 0l160 1400h340l160 -1400h-200l-40 300h-180l-40 -300h-200zM380 1190l-70 -690h140zM580 1600l-60 -100l-140 50l-150 -50l-50 100l200 100z" />
    <glyph glyph-name="Atilde" unicode="&#xc3;" horiz-adv-x="760" 
d="M50 0l160 1400h340l160 -1400h-200l-40 300h-180l-40 -300h-200zM380 1190l-70 -690h140zM216 1505l-97.002 0.000976562c-0.666992 11.333 -1 20.333 -1 27c0 53.333 12.833 94.166 38.5 122.499s58.834 42.5 99.501 42.5c17.333 0 33.666 -1.83301 48.999 -5.5
s43 -14.5 83 -32.5s71.333 -27 94 -27c16 0 29.5 5 40.5 15s17.833 27 20.5 51h99c-0.666992 -68 -13.5 -116.667 -38.5 -146s-57.167 -44 -96.5 -44c-17.333 0 -34.333 1.66699 -51 5c-11.333 3.33301 -40.166 13.833 -86.499 31.5s-80.166 26.5 -101.499 26.5
c-16 0 -28.667 -5 -38 -15s-14 -27 -14 -51z" />
    <glyph glyph-name="Adieresis" unicode="&#xc4;" horiz-adv-x="760" 
d="M50 0l160 1400h340l160 -1400h-200l-40 300h-180l-40 -300h-200zM380 1190l-70 -690h140zM280 1700v-200h-200v200h200zM680 1700v-200h-200v200h200z" />
    <glyph glyph-name="Aring" unicode="&#xc5;" horiz-adv-x="760" 
d="M50 0l160 1400h340l160 -1400h-200l-40 300h-180l-40 -300h-200zM380 1190l-70 -690h140zM486 1756c29.333 -29.333 44 -64.666 44 -105.999s-14.667 -76.666 -44 -105.999s-64.666 -44 -105.999 -44s-76.666 14.667 -105.999 44s-44 64.666 -44 105.999
s14.667 76.666 44 105.999s64.666 44 105.999 44s76.666 -14.667 105.999 -44zM380 1700c-14 0 -25.833 -4.83301 -35.5 -14.5s-14.5 -21.5 -14.5 -35.5s4.83301 -25.833 14.5 -35.5s21.5 -14.5 35.5 -14.5s25.833 4.83301 35.5 14.5s14.5 21.5 14.5 35.5
s-4.83301 25.833 -14.5 35.5s-21.5 14.5 -35.5 14.5z" />
    <glyph glyph-name="AE" unicode="&#xc6;" horiz-adv-x="1013" 
d="M390 1200l-80 -700h140v700h-60zM50 0l171 1399l736 3v-201l-307 -1v-400h250v-200h-250v-400h313v-200h-513v300h-151l-33 -300h-216z" />
    <glyph glyph-name="Ccedilla" unicode="&#xc7;" 
d="M650 1100v-200h-200v200c0 66.667 -33.333 100 -100 100s-100 -33.333 -100 -100v-800c0 -66.667 33.333 -100 100 -100s100 33.333 100 100v200h200v-200c0 -200 -100 -300 -300 -300s-300 100 -300 300v800c0 200 100 300 300 300s300 -100 300 -300zM458 -80l44 -100
l-244 -120l-60 150z" />
    <glyph glyph-name="Egrave" unicode="&#xc8;" horiz-adv-x="600" 
d="M50 1400h500v-200h-300v-400h250v-200h-250v-400h300v-200h-500v1400zM97 1550l60 150l244 -120l-44 -100z" />
    <glyph glyph-name="Eacute" unicode="&#xc9;" horiz-adv-x="600" 
d="M50 1400h500v-200h-300v-400h250v-200h-250v-400h300v-200h-500v1400zM243 1480l-44 100l244 120l60 -150z" />
    <glyph glyph-name="Ecircumflex" unicode="&#xca;" horiz-adv-x="600" 
d="M50 1400h500v-200h-300v-400h250v-200h-250v-400h300v-200h-500v1400zM500 1600l-60 -100l-140 50l-150 -50l-50 100l200 100z" />
    <glyph glyph-name="Edieresis" unicode="&#xcb;" 
d="M100 1400h500v-200h-300v-400h250v-200h-250v-400h300v-200h-500v1400zM250 1700v-200h-200v200h200zM650 1700v-200h-200v200h200z" />
    <glyph glyph-name="Igrave" unicode="&#xcc;" horiz-adv-x="304" 
d="M253 1400v-1400h-200v1400h200zM-50 1550l60 150l244 -120l-44 -100z" />
    <glyph glyph-name="Iacute" unicode="&#xcd;" horiz-adv-x="300" 
d="M251 1400v-1400h-200v1400h200zM94 1480l-44 100l244 120l60 -150z" />
    <glyph glyph-name="Icircumflex" unicode="&#xce;" horiz-adv-x="300" 
d="M250 1400v-1400h-200v1400h200zM350 1600l-60 -100l-140 50l-150 -50l-50 100l200 100z" />
    <glyph glyph-name="Idieresis" unicode="&#xcf;" horiz-adv-x="300" 
d="M250 1400v-1400h-200v1400h200zM50 1700v-200h-200v200h200zM450 1700v-200h-200v200h200z" />
    <glyph glyph-name="Eth" unicode="&#xd0;" horiz-adv-x="800" 
d="M150 0v600h-100v200h100v600h300c200 0 300 -100 300 -300v-800c0 -200 -100 -300 -300 -300h-300zM450 200c66.667 0 100 33.333 100 100v800c0 66.667 -33.333 100 -100 100h-100v-400h100v-200h-100v-400h100z" />
    <glyph glyph-name="Ntilde" unicode="&#xd1;" 
d="M50 0v1400h200l200 -750v750h200v-1400h-200l-200 750v-750h-200zM186 1505l-97.002 0.000976562c-0.666992 11.333 -1 20.333 -1 27c0 53.333 12.833 94.166 38.5 122.499s58.834 42.5 99.501 42.5c17.333 0 33.666 -1.83301 48.999 -5.5s43 -14.5 83 -32.5
s71.333 -27 94 -27c16 0 29.5 5 40.5 15s17.833 27 20.5 51h99c-0.666992 -68 -13.5 -116.667 -38.5 -146s-57.167 -44 -96.5 -44c-17.333 0 -34.333 1.66699 -51 5c-11.333 3.33301 -40.166 13.833 -86.499 31.5s-80.166 26.5 -101.499 26.5c-16 0 -28.667 -5 -38 -15
s-14 -27 -14 -51z" />
    <glyph glyph-name="Ograve" unicode="&#xd2;" 
d="M650 1100v-800c0 -200 -100 -300 -300 -300s-300 100 -300 300v800c0 200 100 300 300 300s300 -100 300 -300zM350 1200c-66.667 0 -100 -33.333 -100 -100v-800c0 -66.667 33.333 -100 100 -100s100 33.333 100 100v800c0 66.667 -33.333 100 -100 100zM147 1550
l60 150l244 -120l-44 -100z" />
    <glyph glyph-name="Oacute" unicode="&#xd3;" 
d="M650 1100v-800c0 -200 -100 -300 -300 -300s-300 100 -300 300v800c0 200 100 300 300 300s300 -100 300 -300zM350 1200c-66.667 0 -100 -33.333 -100 -100v-800c0 -66.667 33.333 -100 100 -100s100 33.333 100 100v800c0 66.667 -33.333 100 -100 100zM293 1480
l-44 100l244 120l60 -150z" />
    <glyph glyph-name="Ocircumflex" unicode="&#xd4;" 
d="M650 1100v-800c0 -200 -100 -300 -300 -300s-300 100 -300 300v800c0 200 100 300 300 300s300 -100 300 -300zM350 1200c-66.667 0 -100 -33.333 -100 -100v-800c0 -66.667 33.333 -100 100 -100s100 33.333 100 100v800c0 66.667 -33.333 100 -100 100zM550 1600
l-60 -100l-140 50l-150 -50l-50 100l200 100z" />
    <glyph glyph-name="Otilde" unicode="&#xd5;" 
d="M650 1100v-800c0 -200 -100 -300 -300 -300s-300 100 -300 300v800c0 200 100 300 300 300s300 -100 300 -300zM350 1200c-66.667 0 -100 -33.333 -100 -100v-800c0 -66.667 33.333 -100 100 -100s100 33.333 100 100v800c0 66.667 -33.333 100 -100 100zM186 1505
l-97.002 0.000976562c-0.666992 11.333 -1 20.333 -1 27c0 53.333 12.833 94.166 38.5 122.499s58.834 42.5 99.501 42.5c17.333 0 33.666 -1.83301 48.999 -5.5s43 -14.5 83 -32.5s71.333 -27 94 -27c16 0 29.5 5 40.5 15s17.833 27 20.5 51h99
c-0.666992 -68 -13.5 -116.667 -38.5 -146s-57.167 -44 -96.5 -44c-17.333 0 -34.333 1.66699 -51 5c-11.333 3.33301 -40.166 13.833 -86.499 31.5s-80.166 26.5 -101.499 26.5c-16 0 -28.667 -5 -38 -15s-14 -27 -14 -51z" />
    <glyph glyph-name="Odieresis" unicode="&#xd6;" 
d="M650 1100v-800c0 -200 -100 -300 -300 -300s-300 100 -300 300v800c0 200 100 300 300 300s300 -100 300 -300zM350 1200c-66.667 0 -100 -33.333 -100 -100v-800c0 -66.667 33.333 -100 100 -100s100 33.333 100 100v800c0 66.667 -33.333 100 -100 100zM250 1700v-200
h-200v200h200zM650 1700v-200h-200v200h200z" />
    <glyph glyph-name="multiply" unicode="&#xd7;" horiz-adv-x="650" 
d="M50 1200h200l80 -300l70 300h200l-150 -500l150 -500h-200l-70 300l-80 -300h-200l150 500z" />
    <glyph glyph-name="Oslash" unicode="&#xd8;" 
d="M650 1100v-800c0 -200 -100 -300 -300 -300s-300 100 -300 300v800c0 200 100 300 300 300s300 -100 300 -300zM250 300c0 -66.667 33.333 -100 100 -100s100 33.333 100 100v369l-200 -170v-199zM450 1100c0 66.667 -33.333 100 -100 100s-100 -33.333 -100 -100v-371
l200 170v201z" />
    <glyph glyph-name="Ugrave" unicode="&#xd9;" 
d="M250 300c0 -66.667 33.333 -100 100 -100s100 33.333 100 100v1100h200v-1100c0 -200 -100 -300 -300 -300s-300 100 -300 300v1100h200v-1100zM147 1550l60 150l244 -120l-44 -100z" />
    <glyph glyph-name="Uacute" unicode="&#xda;" 
d="M250 300c0 -66.667 33.333 -100 100 -100s100 33.333 100 100v1100h200v-1100c0 -200 -100 -300 -300 -300s-300 100 -300 300v1100h200v-1100zM293 1480l-44 100l244 120l60 -150z" />
    <glyph glyph-name="Ucircumflex" unicode="&#xdb;" 
d="M250 300c0 -66.667 33.333 -100 100 -100s100 33.333 100 100v1100h200v-1100c0 -200 -100 -300 -300 -300s-300 100 -300 300v1100h200v-1100zM550 1600l-60 -100l-140 50l-150 -50l-50 100l200 100z" />
    <glyph glyph-name="Udieresis" unicode="&#xdc;" 
d="M250 300c0 -66.667 33.333 -100 100 -100s100 33.333 100 100v1100h200v-1100c0 -200 -100 -300 -300 -300s-300 100 -300 300v1100h200v-1100zM250 1700v-200h-200v200h200zM650 1700v-200h-200v200h200z" />
    <glyph glyph-name="Yacute" unicode="&#xdd;" horiz-adv-x="750" 
d="M250 1400l120 -650l130 650h200l-230 -900v-500h-200v500l-220 900h200zM318 1480l-44 100l244 120l60 -150z" />
    <glyph glyph-name="Thorn" unicode="&#xde;" 
d="M250 950v-500h100c66.667 0 100 33.333 100 100v300c0 66.667 -33.333 100 -100 100h-100zM50 0v1400h200v-250h100c200 0 300 -100 300 -300v-300c0 -200 -100 -300 -300 -300h-100v-250h-200z" />
    <glyph glyph-name="germandbls" unicode="&#xdf;" horiz-adv-x="1400" 
d="M50 450h200v-150c0 -66.667 33.333 -100 100 -100s100 33.333 100 100v100c0 66.667 -66.667 150 -200 250s-200 216.667 -200 350v100c0 200 100 300 300 300s300 -100 300 -300v-150h-200v150c0 66.667 -33.333 100 -100 100s-100 -33.333 -100 -100v-100
c0 -66.667 66.667 -150 200 -250s200 -216.667 200 -350v-100c0 -200 -100 -300 -300 -300s-300 100 -300 300v150zM750 450h200v-150c0 -66.667 33.333 -100 100 -100s100 33.333 100 100v100c0 66.667 -66.667 150 -200 250s-200 216.667 -200 350v100
c0 200 100 300 300 300s300 -100 300 -300v-150h-200v150c0 66.667 -33.333 100 -100 100s-100 -33.333 -100 -100v-100c0 -66.667 66.667 -150 200 -250s200 -216.667 200 -350v-100c0 -200 -100 -300 -300 -300s-300 100 -300 300v150z" />
    <glyph glyph-name="agrave" unicode="&#xe0;" horiz-adv-x="760" 
d="M50 0l160 1400h340l160 -1400h-200l-40 300h-180l-40 -300h-200zM380 1190l-70 -690h140zM177 1550l60 150l244 -120l-44 -100z" />
    <glyph glyph-name="aacute" unicode="&#xe1;" horiz-adv-x="760" 
d="M50 0l160 1400h340l160 -1400h-200l-40 300h-180l-40 -300h-200zM380 1190l-70 -690h140zM323 1480l-44 100l244 120l60 -150z" />
    <glyph glyph-name="acircumflex" unicode="&#xe2;" horiz-adv-x="760" 
d="M50 0l160 1400h340l160 -1400h-200l-40 300h-180l-40 -300h-200zM380 1190l-70 -690h140zM580 1600l-60 -100l-140 50l-150 -50l-50 100l200 100z" />
    <glyph glyph-name="atilde" unicode="&#xe3;" horiz-adv-x="760" 
d="M50 0l160 1400h340l160 -1400h-200l-40 300h-180l-40 -300h-200zM380 1190l-70 -690h140zM216 1505l-97.002 0.000976562c-0.666992 11.333 -1 20.333 -1 27c0 53.333 12.833 94.166 38.5 122.499s58.834 42.5 99.501 42.5c17.333 0 33.666 -1.83301 48.999 -5.5
s43 -14.5 83 -32.5s71.333 -27 94 -27c16 0 29.5 5 40.5 15s17.833 27 20.5 51h99c-0.666992 -68 -13.5 -116.667 -38.5 -146s-57.167 -44 -96.5 -44c-17.333 0 -34.333 1.66699 -51 5c-11.333 3.33301 -40.166 13.833 -86.499 31.5s-80.166 26.5 -101.499 26.5
c-16 0 -28.667 -5 -38 -15s-14 -27 -14 -51z" />
    <glyph glyph-name="adieresis" unicode="&#xe4;" horiz-adv-x="760" 
d="M50 0l160 1400h340l160 -1400h-200l-40 300h-180l-40 -300h-200zM380 1190l-70 -690h140zM280 1700v-200h-200v200h200zM680 1700v-200h-200v200h200z" />
    <glyph glyph-name="aring" unicode="&#xe5;" horiz-adv-x="760" 
d="M50 0l160 1400h340l160 -1400h-200l-40 300h-180l-40 -300h-200zM380 1190l-70 -690h140zM486 1756c29.333 -29.333 44 -64.666 44 -105.999s-14.667 -76.666 -44 -105.999s-64.666 -44 -105.999 -44s-76.666 14.667 -105.999 44s-44 64.666 -44 105.999
s14.667 76.666 44 105.999s64.666 44 105.999 44s76.666 -14.667 105.999 -44zM380 1700c-14 0 -25.833 -4.83301 -35.5 -14.5s-14.5 -21.5 -14.5 -35.5s4.83301 -25.833 14.5 -35.5s21.5 -14.5 35.5 -14.5s25.833 4.83301 35.5 14.5s14.5 21.5 14.5 35.5
s-4.83301 25.833 -14.5 35.5s-21.5 14.5 -35.5 14.5z" />
    <glyph glyph-name="ae" unicode="&#xe6;" horiz-adv-x="1013" 
d="M390 1200l-80 -700h140v700h-60zM50 0l171 1399l736 3v-201l-307 -1v-400h250v-200h-250v-400h313v-200h-513v300h-151l-33 -300h-216z" />
    <glyph glyph-name="ccedilla" unicode="&#xe7;" 
d="M650 1100v-200h-200v200c0 66.667 -33.333 100 -100 100s-100 -33.333 -100 -100v-800c0 -66.667 33.333 -100 100 -100s100 33.333 100 100v200h200v-200c0 -200 -100 -300 -300 -300s-300 100 -300 300v800c0 200 100 300 300 300s300 -100 300 -300zM458 -80l44 -100
l-244 -120l-60 150z" />
    <glyph glyph-name="egrave" unicode="&#xe8;" horiz-adv-x="600" 
d="M50 1400h500v-200h-300v-400h250v-200h-250v-400h300v-200h-500v1400zM97 1550l60 150l244 -120l-44 -100z" />
    <glyph glyph-name="eacute" unicode="&#xe9;" horiz-adv-x="600" 
d="M50 1400h500v-200h-300v-400h250v-200h-250v-400h300v-200h-500v1400zM243 1480l-44 100l244 120l60 -150z" />
    <glyph glyph-name="ecircumflex" unicode="&#xea;" horiz-adv-x="600" 
d="M50 1400h500v-200h-300v-400h250v-200h-250v-400h300v-200h-500v1400zM500 1600l-60 -100l-140 50l-150 -50l-50 100l200 100z" />
    <glyph glyph-name="edieresis" unicode="&#xeb;" 
d="M100 1400h500v-200h-300v-400h250v-200h-250v-400h300v-200h-500v1400zM250 1700v-200h-200v200h200zM650 1700v-200h-200v200h200z" />
    <glyph glyph-name="igrave" unicode="&#xec;" horiz-adv-x="304" 
d="M253 1400v-1400h-200v1400h200zM-50 1550l60 150l244 -120l-44 -100z" />
    <glyph glyph-name="iacute" unicode="&#xed;" horiz-adv-x="300" 
d="M251 1400v-1400h-200v1400h200zM94 1480l-44 100l244 120l60 -150z" />
    <glyph glyph-name="icircumflex" unicode="&#xee;" horiz-adv-x="300" 
d="M250 1400v-1400h-200v1400h200zM350 1600l-60 -100l-140 50l-150 -50l-50 100l200 100z" />
    <glyph glyph-name="idieresis" unicode="&#xef;" horiz-adv-x="300" 
d="M250 1400v-1400h-200v1400h200zM50 1700v-200h-200v200h200zM450 1700v-200h-200v200h200z" />
    <glyph glyph-name="eth" unicode="&#xf0;" horiz-adv-x="800" 
d="M150 0v600h-100v200h100v600h300c200 0 300 -100 300 -300v-800c0 -200 -100 -300 -300 -300h-300zM450 200c66.667 0 100 33.333 100 100v800c0 66.667 -33.333 100 -100 100h-100v-400h100v-200h-100v-400h100z" />
    <glyph glyph-name="ntilde" unicode="&#xf1;" 
d="M50 0v1400h200l200 -750v750h200v-1400h-200l-200 750v-750h-200zM186 1505l-97.002 0.000976562c-0.666992 11.333 -1 20.333 -1 27c0 53.333 12.833 94.166 38.5 122.499s58.834 42.5 99.501 42.5c17.333 0 33.666 -1.83301 48.999 -5.5s43 -14.5 83 -32.5
s71.333 -27 94 -27c16 0 29.5 5 40.5 15s17.833 27 20.5 51h99c-0.666992 -68 -13.5 -116.667 -38.5 -146s-57.167 -44 -96.5 -44c-17.333 0 -34.333 1.66699 -51 5c-11.333 3.33301 -40.166 13.833 -86.499 31.5s-80.166 26.5 -101.499 26.5c-16 0 -28.667 -5 -38 -15
s-14 -27 -14 -51z" />
    <glyph glyph-name="ograve" unicode="&#xf2;" 
d="M650 1100v-800c0 -200 -100 -300 -300 -300s-300 100 -300 300v800c0 200 100 300 300 300s300 -100 300 -300zM350 1200c-66.667 0 -100 -33.333 -100 -100v-800c0 -66.667 33.333 -100 100 -100s100 33.333 100 100v800c0 66.667 -33.333 100 -100 100zM147 1550
l60 150l244 -120l-44 -100z" />
    <glyph glyph-name="oacute" unicode="&#xf3;" 
d="M650 1100v-800c0 -200 -100 -300 -300 -300s-300 100 -300 300v800c0 200 100 300 300 300s300 -100 300 -300zM350 1200c-66.667 0 -100 -33.333 -100 -100v-800c0 -66.667 33.333 -100 100 -100s100 33.333 100 100v800c0 66.667 -33.333 100 -100 100zM293 1480
l-44 100l244 120l60 -150z" />
    <glyph glyph-name="ocircumflex" unicode="&#xf4;" 
d="M650 1100v-800c0 -200 -100 -300 -300 -300s-300 100 -300 300v800c0 200 100 300 300 300s300 -100 300 -300zM350 1200c-66.667 0 -100 -33.333 -100 -100v-800c0 -66.667 33.333 -100 100 -100s100 33.333 100 100v800c0 66.667 -33.333 100 -100 100zM550 1600
l-60 -100l-140 50l-150 -50l-50 100l200 100z" />
    <glyph glyph-name="otilde" unicode="&#xf5;" 
d="M650 1100v-800c0 -200 -100 -300 -300 -300s-300 100 -300 300v800c0 200 100 300 300 300s300 -100 300 -300zM350 1200c-66.667 0 -100 -33.333 -100 -100v-800c0 -66.667 33.333 -100 100 -100s100 33.333 100 100v800c0 66.667 -33.333 100 -100 100zM186 1505
l-97.002 0.000976562c-0.666992 11.333 -1 20.333 -1 27c0 53.333 12.833 94.166 38.5 122.499s58.834 42.5 99.501 42.5c17.333 0 33.666 -1.83301 48.999 -5.5s43 -14.5 83 -32.5s71.333 -27 94 -27c16 0 29.5 5 40.5 15s17.833 27 20.5 51h99
c-0.666992 -68 -13.5 -116.667 -38.5 -146s-57.167 -44 -96.5 -44c-17.333 0 -34.333 1.66699 -51 5c-11.333 3.33301 -40.166 13.833 -86.499 31.5s-80.166 26.5 -101.499 26.5c-16 0 -28.667 -5 -38 -15s-14 -27 -14 -51z" />
    <glyph glyph-name="odieresis" unicode="&#xf6;" 
d="M650 1100v-800c0 -200 -100 -300 -300 -300s-300 100 -300 300v800c0 200 100 300 300 300s300 -100 300 -300zM350 1200c-66.667 0 -100 -33.333 -100 -100v-800c0 -66.667 33.333 -100 100 -100s100 33.333 100 100v800c0 66.667 -33.333 100 -100 100zM250 1700v-200
h-200v200h200zM650 1700v-200h-200v200h200z" />
    <glyph glyph-name="divide" unicode="&#xf7;" 
d="M650 800v-200h-600v200h600zM450 1200v-200h-200v200h200zM450 400v-200h-200v200h200z" />
    <glyph glyph-name="oslash" unicode="&#xf8;" 
d="M650 1100v-800c0 -200 -100 -300 -300 -300s-300 100 -300 300v800c0 200 100 300 300 300s300 -100 300 -300zM250 300c0 -66.667 33.333 -100 100 -100s100 33.333 100 100v369l-200 -170v-199zM450 1100c0 66.667 -33.333 100 -100 100s-100 -33.333 -100 -100v-371
l200 170v201z" />
    <glyph glyph-name="ugrave" unicode="&#xf9;" 
d="M250 300c0 -66.667 33.333 -100 100 -100s100 33.333 100 100v1100h200v-1100c0 -200 -100 -300 -300 -300s-300 100 -300 300v1100h200v-1100zM147 1550l60 150l244 -120l-44 -100z" />
    <glyph glyph-name="uacute" unicode="&#xfa;" 
d="M250 300c0 -66.667 33.333 -100 100 -100s100 33.333 100 100v1100h200v-1100c0 -200 -100 -300 -300 -300s-300 100 -300 300v1100h200v-1100zM293 1480l-44 100l244 120l60 -150z" />
    <glyph glyph-name="ucircumflex" unicode="&#xfb;" 
d="M250 300c0 -66.667 33.333 -100 100 -100s100 33.333 100 100v1100h200v-1100c0 -200 -100 -300 -300 -300s-300 100 -300 300v1100h200v-1100zM550 1600l-60 -100l-140 50l-150 -50l-50 100l200 100z" />
    <glyph glyph-name="udieresis" unicode="&#xfc;" 
d="M250 300c0 -66.667 33.333 -100 100 -100s100 33.333 100 100v1100h200v-1100c0 -200 -100 -300 -300 -300s-300 100 -300 300v1100h200v-1100zM250 1700v-200h-200v200h200zM650 1700v-200h-200v200h200z" />
    <glyph glyph-name="yacute" unicode="&#xfd;" horiz-adv-x="750" 
d="M250 1400l120 -650l130 650h200l-230 -900v-500h-200v500l-220 900h200zM318 1480l-44 100l244 120l60 -150z" />
    <glyph glyph-name="thorn" unicode="&#xfe;" 
d="M250 950v-500h100c66.667 0 100 33.333 100 100v300c0 66.667 -33.333 100 -100 100h-100zM50 0v1400h200v-250h100c200 0 300 -100 300 -300v-300c0 -200 -100 -300 -300 -300h-100v-250h-200z" />
    <glyph glyph-name="ydieresis" unicode="&#xff;" horiz-adv-x="750" 
d="M250 1400l120 -650l130 650h200l-230 -900v-500h-200v500l-220 900h200zM275 1700v-200h-200v200h200zM675 1700v-200h-200v200h200z" />
    <glyph glyph-name="dotlessi" unicode="&#x131;" horiz-adv-x="300" 
d="M250 1400v-1400h-200v1400h200z" />
    <glyph glyph-name="Lslash" unicode="&#x141;" horiz-adv-x="800" 
d="M150 0v550l-100 -50v200l100 50v650h200v-550l210 130v-200l-210 -130v-450h400v-200h-600z" />
    <glyph glyph-name="lslash" unicode="&#x142;" horiz-adv-x="800" 
d="M150 0v550l-100 -50v200l100 50v650h200v-550l210 130v-200l-210 -130v-450h400v-200h-600z" />
    <glyph glyph-name="OE" unicode="&#x152;" horiz-adv-x="1000" 
d="M350 1200c-66.667 0 -100 -33.333 -100 -100v-800c0 -66.667 33.333 -100 100 -100h100v1000h-100zM950 1400v-200h-300v-400h250v-200h-250v-400h300v-200h-600c-200 0 -300 100 -300 300v800c0 200 100 300 300 300h600z" />
    <glyph glyph-name="oe" unicode="&#x153;" horiz-adv-x="1000" 
d="M350 1200c-66.667 0 -100 -33.333 -100 -100v-800c0 -66.667 33.333 -100 100 -100h100v1000h-100zM950 1400v-200h-300v-400h250v-200h-250v-400h300v-200h-600c-200 0 -300 100 -300 300v800c0 200 100 300 300 300h600z" />
    <glyph glyph-name="Scaron" unicode="&#x160;" 
d="M50 450h200v-150c0 -66.667 33.333 -100 100 -100s100 33.333 100 100v100c0 66.667 -66.667 150 -200 250s-200 216.667 -200 350v100c0 200 100 300 300 300s300 -100 300 -300v-150h-200v150c0 66.667 -33.333 100 -100 100s-100 -33.333 -100 -100v-100
c0 -66.667 66.667 -150 200 -250s200 -216.667 200 -350v-100c0 -200 -100 -300 -300 -300s-300 100 -300 300v150zM150 1600l60 100l140 -50l150 50l50 -100l-200 -100z" />
    <glyph glyph-name="scaron" unicode="&#x161;" 
d="M50 450h200v-150c0 -66.667 33.333 -100 100 -100s100 33.333 100 100v100c0 66.667 -66.667 150 -200 250s-200 216.667 -200 350v100c0 200 100 300 300 300s300 -100 300 -300v-150h-200v150c0 66.667 -33.333 100 -100 100s-100 -33.333 -100 -100v-100
c0 -66.667 66.667 -150 200 -250s200 -216.667 200 -350v-100c0 -200 -100 -300 -300 -300s-300 100 -300 300v150zM150 1600l60 100l140 -50l150 50l50 -100l-200 -100z" />
    <glyph glyph-name="Ydieresis" unicode="&#x178;" horiz-adv-x="750" 
d="M250 1400l120 -650l130 650h200l-230 -900v-500h-200v500l-220 900h200zM275 1700v-200h-200v200h200zM675 1700v-200h-200v200h200z" />
    <glyph glyph-name="Zcaron" unicode="&#x17d;" horiz-adv-x="650" 
d="M600 1400v-200l-350 -1000h350v-200h-550v200l350 1000h-350v200h550zM125 1600l60 100l140 -50l150 50l50 -100l-200 -100z" />
    <glyph glyph-name="zcaron" unicode="&#x17e;" horiz-adv-x="650" 
d="M600 1400v-200l-350 -1000h350v-200h-550v200l350 1000h-350v200h550zM125 1600l60 100l140 -50l150 50l50 -100l-200 -100z" />
    <glyph glyph-name="florin" unicode="&#x192;" horiz-adv-x="600" 
d="M50 1400h500v-200h-300v-400h250v-200h-250v-600h-200v1400z" />
    <glyph glyph-name="circumflex" unicode="&#x2c6;" horiz-adv-x="500" 
d="M450 1600l-60 -100l-140 50l-150 -50l-50 100l200 100z" />
    <glyph glyph-name="caron" unicode="&#x2c7;" horiz-adv-x="500" 
d="M50 1600l60 100l140 -50l150 50l50 -100l-200 -100z" />
    <glyph glyph-name="breve" unicode="&#x2d8;" horiz-adv-x="500" 
d="M50 1720l100 20c0 -66.667 33.333 -100 100 -100s100 33.333 100 100l100 -20c0 -153.333 -66.667 -230 -200 -230s-200 76.667 -200 230z" />
    <glyph glyph-name="dotaccent" unicode="&#x2d9;" horiz-adv-x="300" 
d="M250 1700v-200h-200v200h200z" />
    <glyph glyph-name="ring" unicode="&#x2da;" horiz-adv-x="400" 
d="M306 1756c29.333 -29.333 44 -64.666 44 -105.999s-14.667 -76.666 -44 -105.999s-64.666 -44 -105.999 -44s-76.666 14.667 -105.999 44s-44 64.666 -44 105.999s14.667 76.666 44 105.999s64.666 44 105.999 44s76.666 -14.667 105.999 -44zM200 1700
c-14 0 -25.833 -4.83301 -35.5 -14.5s-14.5 -21.5 -14.5 -35.5s4.83301 -25.833 14.5 -35.5s21.5 -14.5 35.5 -14.5s25.833 4.83301 35.5 14.5s14.5 21.5 14.5 35.5s-4.83301 25.833 -14.5 35.5s-21.5 14.5 -35.5 14.5z" />
    <glyph glyph-name="ogonek" unicode="&#x2db;" horiz-adv-x="404" 
d="M354 -150l-60 -150l-244 120l44 100z" />
    <glyph glyph-name="tilde" unicode="&#x2dc;" horiz-adv-x="624" 
d="M148 1505l-97.002 0.000976562c-0.666992 11.333 -1 20.333 -1 27c0 53.333 12.833 94.166 38.5 122.499s58.834 42.5 99.501 42.5c17.333 0 33.666 -1.83301 48.999 -5.5s43 -14.5 83 -32.5s71.333 -27 94 -27c16 0 29.5 5 40.5 15s17.833 27 20.5 51h99
c-0.666992 -68 -13.5 -116.667 -38.5 -146s-57.167 -44 -96.5 -44c-17.333 0 -34.333 1.66699 -51 5c-11.333 3.33301 -40.166 13.833 -86.499 31.5s-80.166 26.5 -101.499 26.5c-16 0 -28.667 -5 -38 -15s-14 -27 -14 -51z" />
    <glyph glyph-name="hungarumlaut" unicode="&#x2dd;" horiz-adv-x="574" 
d="M120 1742l150 -60l-120 -244l-100 44zM374 1742l150 -60l-120 -244l-100 44z" />
    <glyph glyph-name="endash" unicode="&#x2013;" 
d="M650 800v-200h-600v200h600z" />
    <glyph glyph-name="emdash" unicode="&#x2014;" horiz-adv-x="800" 
d="M750 800v-200h-700v200h700z" />
    <glyph glyph-name="quoteleft" unicode="&#x2018;" horiz-adv-x="300" 
d="M160 1370l90 -0.000976562v-200h-200v200c0 86.667 43.333 163.334 130 230.001l60 -80c-53.333 -33.333 -80 -83.333 -80 -150z" />
    <glyph glyph-name="quoteright" unicode="&#x2019;" horiz-adv-x="300" 
d="M140 1400l-90 0.000976562v200h200v-200c0 -86.667 -43.333 -163.334 -130 -230.001l-60 80c53.333 33.333 80 83.333 80 150z" />
    <glyph glyph-name="quotesinglbase" unicode="&#x201a;" horiz-adv-x="300" 
d="M140 0l-90 0.000976562v200h200v-200c0 -86.667 -43.333 -163.334 -130 -230.001l-60 80c53.333 33.333 80 83.333 80 150z" />
    <glyph glyph-name="quotedblleft" unicode="&#x201c;" horiz-adv-x="600" 
d="M160 1370l90 -0.000976562v-200h-200v200c0 86.667 43.333 163.334 130 230.001l60 -80c-53.333 -33.333 -80 -83.333 -80 -150zM460 1370l90 -0.000976562v-200h-200v200c0 86.667 43.333 163.334 130 230.001l60 -80c-53.333 -33.333 -80 -83.333 -80 -150z" />
    <glyph glyph-name="quotedblright" unicode="&#x201d;" horiz-adv-x="600" 
d="M140 1400l-90 0.000976562v200h200v-200c0 -86.667 -43.333 -163.334 -130 -230.001l-60 80c53.333 33.333 80 83.333 80 150zM440 1400l-90 0.000976562v200h200v-200c0 -86.667 -43.333 -163.334 -130 -230.001l-60 80c53.333 33.333 80 83.333 80 150z" />
    <glyph glyph-name="quotedblbase" unicode="&#x201e;" horiz-adv-x="600" 
d="M140 0l-90 0.000976562v200h200v-200c0 -86.667 -43.333 -163.334 -130 -230.001l-60 80c53.333 33.333 80 83.333 80 150zM440 0.000976562l-90 0.000976562v200h200v-200c0 -86.667 -43.333 -163.334 -130 -230.001l-60 80c53.333 33.333 80 83.333 80 150z" />
    <glyph glyph-name="dagger" unicode="&#x2020;" 
d="M250 0v900h-200v200h200v300h200v-300h200v-200h-200v-900h-200z" />
    <glyph glyph-name="daggerdbl" unicode="&#x2021;" 
d="M250 0v300h-200v200h200v400h-200v200h200v300h200v-300h200v-200h-200v-400h200v-200h-200v-300h-200z" />
    <glyph glyph-name="bullet" unicode="&#x2022;" horiz-adv-x="500" 
d="M391.5 841.5c39 -39 58.5 -86.167 58.5 -141.5s-19.5 -102.5 -58.5 -141.5s-86.167 -58.5 -141.5 -58.5s-102.5 19.5 -141.5 58.5s-58.5 86.167 -58.5 141.5s19.5 102.5 58.5 141.5s86.167 58.5 141.5 58.5s102.5 -19.5 141.5 -58.5z" />
    <glyph glyph-name="ellipsis" unicode="&#x2026;" horiz-adv-x="1100" 
d="M250 200v-200h-200v200h200zM650 200v-200h-200v200h200zM1050 200v-200h-200v200h200z" />
    <glyph glyph-name="perthousand" unicode="&#x2030;" horiz-adv-x="2400" 
d="M350 1400c200 0 300 -100 300 -300v-300c0 -200 -100 -300 -300 -300s-300 100 -300 300v300c0 200 100 300 300 300zM250 1100v-300c0 -66.667 33.333 -100 100 -100s100 33.333 100 100v300c0 66.667 -33.333 100 -100 100s-100 -33.333 -100 -100zM1350 900
c200 0 300 -100 300 -300v-300c0 -200 -100 -300 -300 -300s-300 100 -300 300v300c0 200 100 300 300 300zM1250 600v-300c0 -66.667 33.333 -100 100 -100s100 33.333 100 100v300c0 66.667 -33.333 100 -100 100s-100 -33.333 -100 -100zM500 0l500 1400h200l-500 -1400
h-200zM2050 900c200 0 300 -100 300 -300v-300c0 -200 -100 -300 -300 -300s-300 100 -300 300v300c0 200 100 300 300 300zM1950 600v-300c0 -66.667 33.333 -100 100 -100s100 33.333 100 100v300c0 66.667 -33.333 100 -100 100s-100 -33.333 -100 -100z" />
    <glyph glyph-name="guilsinglleft" unicode="&#x2039;" horiz-adv-x="550" 
d="M500 1200l-250 -500l250 -500h-200l-250 500l250 500h200z" />
    <glyph glyph-name="guilsinglright" unicode="&#x203a;" horiz-adv-x="550" 
d="M250 1200l250 -500l-250 -500h-200l250 500l-250 500h200z" />
    <glyph glyph-name="Euro" unicode="&#x20ac;" horiz-adv-x="800" 
d="M586 650l-35 -140h-201v-210c0 -66.667 33.333 -100 100 -100s100 33.333 100 100v50h200v-50c0 -200 -100 -300 -300 -300s-300 100 -300 300v210h-100v140h100v100h-100v150h100v200c0 200 100 300 300 300s300 -100 300 -300v-50h-200v50
c0 66.667 -33.333 100 -100 100s-100 -33.333 -100 -100v-200h300l-38 -150h-262v-100h236z" />
    <glyph glyph-name="trademark" unicode="&#x2122;" horiz-adv-x="868" 
d="M320 1320h-90v-480h-90v480h-90v80h270v-80zM525 1400l77 -384l81 384h135v-560h-90v380l-81 -380h-90l-77 380v-380h-90v560h135z" />
  </font>
</defs>
</svg>
